<svg width="21" height="20" viewBox="0 0 21 20" fill="none" xmlns="http://www.w3.org/2000/svg">
<path d="M18.0265 4.73247C18.6512 4.10776 18.6512 3.09324 18.0265 2.46853C17.4018 1.84382 16.3872 1.84382 15.7625 2.46853L10.5 7.73606L5.23247 2.47353C4.60776 1.84882 3.59324 1.84882 2.96853 2.47353C2.34382 3.09824 2.34382 4.11276 2.96853 4.73747L8.23606 10L2.97353 15.2675C2.34882 15.8922 2.34882 16.9068 2.97353 17.5315C3.59824 18.1562 4.61276 18.1562 5.23747 17.5315L10.5 12.2639L15.7675 17.5265C16.3922 18.1512 17.4068 18.1512 18.0315 17.5265C18.6562 16.9018 18.6562 15.8872 18.0315 15.2625L12.7639 10L18.0265 4.73247Z" fill="#DC3545"/>
</svg>
