<svg width="148" height="148" viewBox="0 0 148 148" fill="none" xmlns="http://www.w3.org/2000/svg">
<g clip-path="url(#clip0_301_493)">
<rect width="148" height="148" rx="32" fill="#007BFF"/>
<path d="M73.96 117.28C70.2053 117.28 66.4507 116.981 62.696 116.384C58.9413 115.872 55.4 115.061 52.072 113.952C48.744 112.757 45.7573 111.307 43.112 109.6C41.576 108.576 40.5093 107.339 39.912 105.888C39.3147 104.437 39.1013 103.029 39.272 101.664C39.528 100.213 40.0827 98.976 40.936 97.952C41.8747 96.8427 43.0267 96.16 44.392 95.904C45.7573 95.648 47.2507 96.032 48.872 97.056C52.6267 99.2747 56.5947 100.896 60.776 101.92C64.9573 102.944 69.352 103.456 73.96 103.456C80.7013 103.456 85.608 102.347 88.68 100.128C91.752 97.824 93.288 94.88 93.288 91.296C93.288 88.3093 92.1787 85.9627 89.96 84.256C87.8267 82.5493 84.1147 81.1413 78.824 80.032L64.744 77.088C56.6373 75.3813 50.5787 72.5227 46.568 68.512C42.6427 64.416 40.68 59.04 40.68 52.384C40.68 48.2027 41.5333 44.4053 43.24 40.992C44.9467 37.5787 47.336 34.6347 50.408 32.16C53.5653 29.6853 57.2773 27.808 61.544 26.528C65.896 25.1627 70.6747 24.48 75.88 24.48C81 24.48 85.864 25.12 90.472 26.4C95.08 27.68 99.2187 29.5573 102.888 32.032C104.253 32.9707 105.149 34.1227 105.576 35.488C106.088 36.8533 106.216 38.2187 105.96 39.584C105.704 40.864 105.107 41.9733 104.168 42.912C103.229 43.8507 102.035 44.4053 100.584 44.576C99.2187 44.7467 97.64 44.32 95.848 43.296C92.6907 41.504 89.4907 40.224 86.248 39.456C83.0053 38.688 79.5067 38.304 75.752 38.304C71.8267 38.304 68.456 38.8587 65.64 39.968C62.824 41.0773 60.648 42.656 59.112 44.704C57.6613 46.6667 56.936 49.0133 56.936 51.744C56.936 54.816 57.96 57.2907 60.008 59.168C62.056 60.96 65.5547 62.368 70.504 63.392L84.456 66.336C92.904 68.128 99.176 70.944 103.272 74.784C107.453 78.624 109.544 83.744 109.544 90.144C109.544 94.24 108.691 97.952 106.984 101.28C105.363 104.608 102.973 107.467 99.816 109.856C96.744 112.245 93.032 114.08 88.68 115.36C84.328 116.64 79.4213 117.28 73.96 117.28Z" fill="white"/>
</g>
<defs>
<clipPath id="clip0_301_493">
<rect width="148" height="148" rx="32" fill="white"/>
</clipPath>
</defs>
</svg>
