<svg width="19" height="18" viewBox="0 0 19 18" fill="none" xmlns="http://www.w3.org/2000/svg">
<g clip-path="url(#clip0_272_14)">
<path d="M10.232 0.613637C10.0518 0.238636 9.67089 0 9.25258 0C8.83426 0 8.45676 0.238636 8.27311 0.613637L6.08632 5.12387L1.2026 5.84659C0.794494 5.90796 0.454402 6.19432 0.328568 6.58637C0.202734 6.97841 0.304762 7.41137 0.597241 7.70114L4.141 11.2159L3.30437 16.183C3.23635 16.5921 3.4064 17.008 3.74309 17.25C4.07978 17.4921 4.5253 17.5227 4.8926 17.3284L9.25598 14.9932L13.6194 17.3284C13.9867 17.5227 14.4322 17.4955 14.7689 17.25C15.1056 17.0046 15.2756 16.5921 15.2076 16.183L14.3676 11.2159L17.9113 7.70114C18.2038 7.41137 18.3092 6.97841 18.18 6.58637C18.0507 6.19432 17.7141 5.90796 17.3059 5.84659L12.4188 5.12387L10.232 0.613637Z" fill="#D5AB55"/>
</g>
<defs>
<clipPath id="clip0_272_14">
<rect width="18.5455" height="18" fill="white"/>
</clipPath>
</defs>
</svg>
