<svg width="41" height="40" viewBox="0 0 41 40" fill="none" xmlns="http://www.w3.org/2000/svg">
<circle cx="20.5" cy="20" r="20" transform="rotate(-90 20.5 20)" fill="#007BFF"/>
<path d="M19.9187 28.24C19.0547 28.24 18.1587 28.128 17.2307 27.904C16.3027 27.68 15.4947 27.344 14.8067 26.896C14.4867 26.688 14.2707 26.448 14.1587 26.176C14.0467 25.904 14.0147 25.648 14.0627 25.408C14.1267 25.152 14.2467 24.936 14.4227 24.76C14.6147 24.584 14.8467 24.48 15.1187 24.448C15.4067 24.416 15.7187 24.488 16.0547 24.664C16.7107 25.016 17.3427 25.272 17.9507 25.432C18.5587 25.576 19.1827 25.648 19.8227 25.648C20.5267 25.648 21.1187 25.552 21.5987 25.36C22.0787 25.168 22.4387 24.88 22.6787 24.496C22.9347 24.112 23.0627 23.648 23.0627 23.104C23.0627 22.304 22.7907 21.712 22.2467 21.328C21.7187 20.928 20.9427 20.728 19.9187 20.728H18.3827C17.9347 20.728 17.5907 20.616 17.3507 20.392C17.1267 20.168 17.0147 19.856 17.0147 19.456C17.0147 19.056 17.1267 18.744 17.3507 18.52C17.5907 18.296 17.9347 18.184 18.3827 18.184H19.6307C20.2387 18.184 20.7587 18.088 21.1907 17.896C21.6227 17.688 21.9587 17.4 22.1987 17.032C22.4387 16.664 22.5587 16.216 22.5587 15.688C22.5587 14.952 22.3107 14.392 21.8147 14.008C21.3347 13.624 20.6307 13.432 19.7027 13.432C19.1107 13.432 18.5507 13.504 18.0227 13.648C17.5107 13.776 16.9427 14.024 16.3187 14.392C16.0307 14.568 15.7507 14.64 15.4787 14.608C15.2227 14.576 15.0067 14.472 14.8307 14.296C14.6547 14.12 14.5347 13.912 14.4707 13.672C14.4067 13.416 14.4227 13.16 14.5187 12.904C14.6147 12.632 14.8147 12.4 15.1187 12.208C15.8067 11.76 16.5667 11.424 17.3987 11.2C18.2307 10.96 19.0867 10.84 19.9667 10.84C21.1347 10.84 22.1347 11.024 22.9667 11.392C23.7987 11.744 24.4307 12.256 24.8627 12.928C25.3107 13.584 25.5347 14.384 25.5347 15.328C25.5347 16 25.4067 16.616 25.1507 17.176C24.8947 17.72 24.5347 18.184 24.0707 18.568C23.6067 18.952 23.0467 19.224 22.3907 19.384V19.096C23.5427 19.288 24.4387 19.768 25.0787 20.536C25.7187 21.288 26.0387 22.232 26.0387 23.368C26.0387 24.36 25.7907 25.224 25.2947 25.96C24.7987 26.696 24.0947 27.264 23.1827 27.664C22.2707 28.048 21.1827 28.24 19.9187 28.24Z" fill="#FAFAFA"/>
</svg>
