<svg width="41" height="40" viewBox="0 0 41 40" fill="none" xmlns="http://www.w3.org/2000/svg">
<circle cx="20.5" cy="20" r="20" transform="rotate(-90 20.5 20)" fill="#007BFF"/>
<path d="M16.2467 28C15.7347 28 15.3587 27.888 15.1187 27.664C14.8947 27.424 14.7827 27.08 14.7827 26.632C14.7827 26.36 14.8547 26.096 14.9987 25.84C15.1427 25.584 15.3507 25.312 15.6227 25.024L20.4467 19.888C21.1827 19.12 21.7107 18.424 22.0307 17.8C22.3507 17.16 22.5107 16.52 22.5107 15.88C22.5107 15.08 22.2547 14.472 21.7427 14.056C21.2467 13.64 20.5187 13.432 19.5587 13.432C19.0147 13.432 18.4707 13.512 17.9267 13.672C17.3827 13.816 16.8307 14.072 16.2707 14.44C15.9827 14.632 15.7107 14.712 15.4547 14.68C15.2147 14.648 14.9987 14.544 14.8067 14.368C14.6307 14.192 14.5107 13.976 14.4467 13.72C14.3827 13.464 14.3907 13.208 14.4707 12.952C14.5667 12.68 14.7587 12.448 15.0467 12.256C15.7347 11.792 16.5027 11.44 17.3507 11.2C18.2147 10.96 19.0787 10.84 19.9427 10.84C21.1587 10.84 22.1827 11.024 23.0147 11.392C23.8467 11.76 24.4787 12.296 24.9107 13C25.3427 13.704 25.5587 14.56 25.5587 15.568C25.5587 16.24 25.4467 16.896 25.2227 17.536C25.0147 18.176 24.6867 18.824 24.2387 19.48C23.8067 20.136 23.2387 20.832 22.5347 21.568L18.0227 26.272V25.456H25.0787C25.5107 25.456 25.8387 25.56 26.0627 25.768C26.2867 25.976 26.3987 26.288 26.3987 26.704C26.3987 27.12 26.2867 27.44 26.0627 27.664C25.8387 27.888 25.5107 28 25.0787 28H16.2467Z" fill="#FAFAFA"/>
</svg>
