<svg width="41" height="40" viewBox="0 0 41 40" fill="none" xmlns="http://www.w3.org/2000/svg">
<circle cx="20.5" cy="20" r="20" transform="rotate(-90 20.5 20)" fill="#007BFF"/>
<path d="M16.7987 28C16.3827 28 16.0547 27.888 15.8147 27.664C15.5907 27.424 15.4787 27.104 15.4787 26.704C15.4787 26.288 15.5907 25.976 15.8147 25.768C16.0547 25.56 16.3827 25.456 16.7987 25.456H19.4867V13.672H20.9747L17.4467 15.808C17.1427 15.984 16.8547 16.056 16.5827 16.024C16.3267 15.976 16.1027 15.864 15.9107 15.688C15.7347 15.496 15.6147 15.272 15.5507 15.016C15.4867 14.76 15.5027 14.504 15.5987 14.248C15.7107 13.976 15.9187 13.752 16.2227 13.576L19.5347 11.584C19.8547 11.392 20.1747 11.232 20.4947 11.104C20.8147 10.96 21.1107 10.888 21.3827 10.888C21.7187 10.888 21.9987 10.984 22.2227 11.176C22.4467 11.352 22.5587 11.648 22.5587 12.064V25.456H25.0067C25.4227 25.456 25.7427 25.56 25.9667 25.768C26.2067 25.976 26.3267 26.288 26.3267 26.704C26.3267 27.12 26.2067 27.44 25.9667 27.664C25.7427 27.888 25.4227 28 25.0067 28H16.7987Z" fill="#FAFAFA"/>
</svg>
