<svg width="24" height="25" viewBox="0 0 24 25" fill="none" xmlns="http://www.w3.org/2000/svg">
<path d="M19.0045 5.36406C17.1339 3.39531 14.6429 2.3125 11.9955 2.3125C6.53125 2.3125 2.08482 6.98125 2.08482 12.7188C2.08482 14.5516 2.54018 16.3422 3.40625 17.9219L2 23.3125L7.25446 21.8641C8.70089 22.6938 10.3304 23.1297 11.9911 23.1297H11.9955C17.4554 23.1297 22 18.4609 22 12.7234C22 9.94375 20.875 7.33281 19.0045 5.36406ZM11.9955 21.3766C10.5134 21.3766 9.0625 20.9594 7.79911 20.1719L7.5 19.9844L4.38393 20.8422L5.21429 17.65L5.01786 17.3219C4.19196 15.9438 3.75893 14.3547 3.75893 12.7188C3.75893 7.95156 7.45536 4.07031 12 4.07031C14.2009 4.07031 16.2679 4.97031 17.8214 6.60625C19.375 8.24219 20.3304 10.4125 20.3259 12.7234C20.3259 17.4953 16.5357 21.3766 11.9955 21.3766ZM16.5134 14.8984C16.2679 14.7672 15.0491 14.1391 14.8214 14.0547C14.5938 13.9656 14.4286 13.9234 14.2634 14.1859C14.0982 14.4484 13.625 15.0297 13.4777 15.2078C13.3348 15.3813 13.1875 15.4047 12.942 15.2734C11.4866 14.5094 10.5312 13.9094 9.57143 12.1797C9.31696 11.7203 9.82589 11.7531 10.2991 10.7594C10.3795 10.5859 10.3393 10.4359 10.2768 10.3047C10.2143 10.1734 9.71875 8.89375 9.51339 8.37344C9.3125 7.86719 9.10714 7.9375 8.95536 7.92813C8.8125 7.91875 8.64732 7.91875 8.48214 7.91875C8.31696 7.91875 8.04911 7.98438 7.82143 8.24219C7.59375 8.50469 6.95536 9.13281 6.95536 10.4125C6.95536 11.6922 7.84375 12.9297 7.96429 13.1031C8.08929 13.2766 9.70982 15.9016 12.1964 17.0312C13.7679 17.7437 14.3839 17.8047 15.1696 17.6828C15.6473 17.6078 16.6339 17.0547 16.8393 16.4453C17.0446 15.8359 17.0446 15.3156 16.9821 15.2078C16.9241 15.0906 16.7589 15.025 16.5134 14.8984Z" fill="white"/>
</svg>
